# AST/ASF file generated using VICON BodyLanguage
# -----------------------------------------------
:version 1.10
:name VICON
:units
  mass 1.0
  length 0.45
  angle deg
:documentation
   .ast/.asf automatically generated from VICON data using
   VICON BodyBuilder and BodyLanguage model FoxedUp or BRILLIANT.MOD
:root
   order TX TY TZ RX RY RZ
   axis XYZ
   position 0 0 0  
   orientation 0 0 0 
:bonedata
  begin
     id 1 
     name lhipjoint
     direction 0.528046 -0.759594 0.379717 
     length 2.39752 
     axis 0 0 0  XYZ
  end
  begin
     id 2 
     name lfemur
     direction 0.34202 -0.939693 0  
     length 7.31175  
     axis 0 0 20  XYZ
    dof rx ry rz
    limits (-160.0 20.0)
           (-70.0 70.0)
           (-60.0 70.0)
  end
  begin
     id 3 
     name ltibia
     direction 0.34202 -0.939693 0   
     length 7.52482   
     axis 0 0 20   XYZ
    dof rx
    limits (-10.0 170.0)
  end
  begin
     id 4 
     name lfoot
     direction 0.0675379 -0.185559 0.980309   
     length 2.00961   
     axis -90 7.62852e-016 20   XYZ
    dof rx rz
    limits (-45.0 90.0)
           (-70.0 20.0)
  end
  begin
     id 5 
     name ltoes
     direction 1.5352e-011 -4.22286e-011 1   
     length 1.01383   
     axis -90 7.62852e-016 20   XYZ
    dof rx
    limits (-90.0 20.0)
  end
  begin
     id 6 
     name rhipjoint
     direction -0.510274 -0.769251 0.384544   
     length 2.36742  
     axis 0 0 0  XYZ 
  end
  begin
     id 7 
     name rfemur
     direction -0.34202 -0.939693 0   
     length 7.45325   
     axis 0 0 -20   XYZ
    dof rx ry rz
    limits (-160.0 20.0)
           (-70.0 70.0)
           (-70.0 60.0)
  end
  begin
     id 8 
     name rtibia
     direction -0.34202 -0.939693 0   
     length 7.49587   
     axis 0 0 -20   XYZ
    dof rx
    limits (-10.0 170.0)
 end
 begin
     id 9 
     name rfoot
     direction -0.106475 -0.292536 0.950308   
     length 2.20898  
     axis -90 -7.62852e-016 -20   XYZ
    dof rx rz
    limits (-45.0 90.0)
           (-20.0 70.0)
  end
  begin
     id 10 
     name rtoes
     direction -1.53597e-011 -4.22023e-011 1   
     length 1.10065   
     axis -90 -7.62852e-016 -20   XYZ
    dof rx
    limits (-90.0 20.0)
  end
  begin
     id 11 
     name lowerback
     direction 0.0260024 0.998026 -0.0571652   
     length 2.11214   
     axis 0 0 0   XYZ
    dof rx ry rz
    limits (-20.0 45.0)
           (-30.0 30.0)
           (-30.0 30.0)
  end
  begin
     id 12 
     name upperback
     direction 0.0216202 0.999542 -0.0211766   
     length 2.11689   
     axis 0 0 0   XYZ
    dof rx ry rz
    limits (-20.0 45.0)
           (-30.0 30.0)
           (-30.0 30.0)
  end
  begin
     id 13 
     name thorax
     direction 0.00883312 0.999944 0.00589057   
     length 2.11821   
     axis 0 0 0   XYZ
    dof rx ry rz
    limits (-20.0 45.0)
           (-30.0 30.0)
           (-30.0 30.0)
  end
  begin
     id 14 
     name lowerneck
     direction -0.059386 0.994433 0.0870401   
     length 1.81176   
     axis 0 0 0   XYZ
    dof rx ry rz
    limits (-20.0 45.0)
           (-30.0 30.0)
           (-30.0 30.0)
  end
  begin
     id 15 
     name upperneck
     direction 0.0506457 0.97328 -0.223967   
     length 1.82382   
     axis 0 0 0   XYZ
    dof rx ry rz
    limits (-20.0 45.0)
           (-30.0 30.0)
           (-30.0 30.0)
  end
  begin
     id 16
     name head
     direction 0.0205902 0.996147 -0.0852487  
     length 1.84805  
     axis 0 0 0   XYZ
    dof rx ry rz
    limits (-20.0 45.0)
           (-30.0 30.0)
           (-30.0 30.0)
  end
  begin
     id 17 
     name lclavicle
     direction 0.949493 0.303881 -0.0782325  
     length 3.60584  
     axis 0 0 0   XYZ
    dof ry rz
    limits (-20.0 10.0)
           (0.0 20.0)
  end
  begin
     id 18 
     name lhumerus
     direction 1 -4.48965e-011 1.48782e-027   
     length 4.95681   
     axis 180 -30 -90   XYZ
    dof rx ry rz
    limits (-60.0 90.0)
           (-90.0 90.0)
           (-90.0 90.0)
  end
  begin
     id 19
     name lradius
     direction 1 -4.48952e-011 2.06528e-027   
     length 3.40915   
     axis 180 -30 -90   XYZ
    dof rx
    limits (-10.0 170.0)
  end
  begin
     id 20
     name lwrist
     direction 1 -4.48964e-011 1.28021e-027   
     length 1.70457   
     axis -1.61767e-015 90 90   XYZ
    dof ry
    limits (-180.0 0.0)
 end
  begin
     id 21 
     name lhand
     direction 1 -4.49094e-011 2.54887e-027   
     length 0.616403   
     axis -1.63363e-015 90 90   XYZ
    dof rx rz
    limits (-90.0 90.0)
           (-45.0 45.0)
  end
  begin
     id 22 
     name lfingers
     direction 1 -4.49002e-011 5.11407e-027   
     length 0.49696   
     axis -3.26723e-015 90 90   XYZ
    dof rx
    limits (0.0 90.0)
  end
  begin
     id 23
     name lthumb
     direction 0.707107 -6.34998e-011 0.707107   
     length 0.713539   
     axis -90 45 -2.25915e-014   XYZ
    dof rx rz
    limits (-45.0 45.0)
           (-45.0 45.0)
  end
  begin
     id 24 
     name rclavicle
     direction -0.937751 0.334612 -0.0930482   
     length 3.46287  
     axis 0 0 0   XYZ 
    dof ry rz
    limits (-10.0 20.0)
           (-20.0 0.0)
  end
  begin
     id 25 
     name rhumerus
     direction -1 -4.48962e-011 3.59972e-027  
     length 5.352   
     axis 180 30 90   XYZ
    dof rx ry rz
    limits (-90.0 60.0)
           (-90.0 90.0)
           (-90.0 90.0)
  end
  begin
     id 26 
     name rradius
     direction -1 -4.48987e-011 -3.76925e-027   
     length 3.43721   
     axis 180 30 90   XYZ
    dof rx
    limits (-10.0 170.0)
  end
  begin
     id 27 
     name rwrist
     direction -1 -4.48943e-011 1.28112e-027   
     length 1.7186   
     axis -1.61767e-015 -90 -90   XYZ
    dof ry
    limits (-180.0 0.0)
  end
  begin
     id 28
     name rhand
     direction -1 -4.49027e-011 2.55483e-027   
     length 0.72009   
     axis -1.63363e-015 -90 -90   XYZ
    dof rx rz
    limits (-90.0 90.0)
           (-45.0 45.0)
  end
  begin
     id 29
     name rfingers
     direction -1 -4.48827e-011 5.14506e-027   
     length 0.580555   
     axis -3.26723e-015 -90 -90   XYZ
    dof rx
    limits (0.0 90.0)
  end
  begin
     id 30
     name rthumb
     direction -0.707107 -6.34936e-011 0.707107   
     length 0.833564   
     axis -90 -45 2.25915e-014   XYZ
    dof rx rz
    limits (-45.0 45.0)
           (-45.0 45.0)
  end
:hierarchy
  begin
    root lhipjoint rhipjoint lowerback
    lhipjoint lfemur
    lfemur ltibia
    ltibia lfoot
    lfoot ltoes
    rhipjoint rfemur
    rfemur rtibia
    rtibia rfoot
    rfoot rtoes
    lowerback upperback
    upperback thorax
    thorax lowerneck lclavicle rclavicle
    lowerneck upperneck
    upperneck head
    lclavicle lhumerus
    lhumerus lradius
    lradius lwrist
    lwrist lhand lthumb
    lhand lfingers
    rclavicle rhumerus
    rhumerus rradius
    rradius rwrist
    rwrist rhand rthumb
    rhand rfingers
  end

#!OML:ASF H:\Terrain\Patient Classification 1\Terrain2\Thursday\justin.ASF
:FULLY-SPECIFIED
:DEGREES
521
root 16.9946 19.929 -11.7908 293.995 85.45 290.835
lowerback 7.24268 2.81256 1.07061
upperback 0.889795 3.90187 1.33675
thorax -3.15679 1.94605 0.394659
lowerneck -13.8771 -6.0752 -10.1988
upperneck 33.854 -7.79399 8.4356
head 14.8371 -3.14723 4.0736
rclavicle -1.68594e-014 -8.32411e-015
rhumerus -29.7609 -10.521 -81.0264
rradius 22.7758
rwrist -1.68231
rhand -16.607 11.2264
rfingers 7.12502
rthumb 9.61454 -18.5343
lclavicle -1.68594e-014 -8.32411e-015
lhumerus -35.6839 14.557 79.5497
lradius 25.7912
lwrist 0.504882
lhand -20.0112 20.1051
lfingers 7.12502
lthumb 6.32896 49.9905
rfemur -4.12184 -2.39937 22.234
rtibia 55.8879
rfoot 21.3855 -5.45325
rtoes 7.14954
lfemur -34.3645 -0.505042 -17.1625
ltibia 45.3783
lfoot -8.89709 -10.389
ltoes 18.0555
522
root 17.1007 19.9898 -11.7989 294.739 85.5743 291.749
lowerback 7.3737 2.69821 0.857332
upperback 0.92982 3.73674 1.37724
thorax -3.20451 1.86695 0.565555
lowerneck -14.0409 -6.02634 -10.2025
upperneck 34.231 -7.67108 8.33463
head 15.0323 -3.09859 4.06956
rclavicle -8.41729e-016 4.5472e-015
rhumerus -29.7874 -11.2466 -80.7201
rradius 23.0464
rwrist -1.53784
rhand -16.5061 11.968
rfingers 7.12502
rthumb 9.71184 -17.7881
lclavicle -8.41729e-016 4.5472e-015
lhumerus -35.5609 15.2323 79.3072
lradius 25.7251
lwrist -0.372222
lhand -19.8773 19.4455
lfingers 7.12502
lthumb 6.45828 49.327
rfemur -5.57816 -2.85878 22.0465
rtibia 58.5635
rfoot 19.6055 -5.01097
rtoes 7.33858
lfemur -33.0818 -0.566479 -17.351
ltibia 44.2067
lfoot -8.66287 -10.3611
ltoes 17.9951
523
root 17.2154 20.0547 -11.8048 295.314 85.6032 292.602
lowerback 7.53018 2.6578 0.891498
upperback 1.00689 3.68947 1.39345
thorax -3.21071 1.84385 0.562283
lowerneck -14.0618 -6.08911 -10.4533
upperneck 34.4701 -7.73054 8.46316
head 15.1825 -3.13457 4.1714
rclavicle 8.85989e-015 -1.2014e-014
rhumerus -29.9307 -11.9696 -80.3551
rradius 23.5453
rwrist -1.62698
rhand -16.5259 12.607
rfingers 7.12502
rthumb 9.69279 -17.15
lclavicle 8.85989e-015 -1.2014e-014
lhumerus -35.401 14.4423 79.7098
lradius 26.0493
lwrist -0.147195
lhand -20.2172 19.3795
lfingers 7.12502
lthumb 6.13012 49.2708
rfemur -6.81912 -3.48281 21.9075
rtibia 61.033
rfoot 17.5174 -4.65479
rtoes 6.98913
lfemur -31.6402 -0.540824 -17.4469
ltibia 43.0628
lfoot -8.62441 -10.3694
ltoes 17.3227
524
root 17.3255 20.1204 -11.8076 296.656 85.703 294.194
lowerback 7.66944 2.54622 0.743144
upperback 1.08732 3.53083 1.38701
thorax -3.21269 1.76729 0.649987
lowerneck -14.0281 -6.01536 -10.4847
upperneck 34.5803 -7.60853 8.45041
head 15.212 -3.08792 4.19972
rclavicle -5.79116e-015 -9.87711e-015
rhumerus -29.9884 -11.9743 -80.3687
rradius 24.1674
rwrist -2.31653
rhand -16.8662 12.6453
rfingers 7.12502
rthumb 9.36441 -17.1267
lclavicle -5.79116e-015 -9.87711e-015
lhumerus -35.3419 13.7873 79.9227
lradius 26.5346
lwrist 0.164747
lhand -20.458 19.5696
lfingers 7.12502
lthumb 5.89763 49.4675
rfemur -8.09423 -3.96819 21.736
rtibia 63.3701
rfoot 15.3123 -4.53985
rtoes 7.10421
lfemur -30.2525 -0.422722 -17.6315
ltibia 41.8768
lfoot -8.53259 -10.4494
ltoes 17.6295
525
root 17.4286 20.1809 -11.8181 299.88 85.9028 297.66
lowerback 7.8407 2.35811 0.449988
upperback 1.13256 3.25644 1.34368
thorax -3.27266 1.63399 0.790926
lowerneck -13.9388 -5.84536 -10.4197
upperneck 34.7167 -7.35389 8.37704
head 15.2135 -2.981 4.2104
rclavicle 6.34403e-015 -6.64686e-015
rhumerus -29.9749 -11.1581 -80.7401
rradius 24.8003
rwrist -3.61477
rhand -17.4668 12.3238
rfingers 7.12502
rthumb 8.78491 -17.4733
lclavicle 6.34403e-015 -6.64686e-015
lhumerus -35.4797 13.5509 79.9058
lradius 27.0937
lwrist 0.384966
lhand -20.2206 19.5835
lfingers 7.12502
lthumb 6.12682 49.4749
rfemur -9.3916 -4.27717 21.3747
rtibia 65.636
rfoot 13.1417 -4.4405
rtoes 6.45231
lfemur -28.8668 -0.2597 -18.0217
ltibia 40.5889
lfoot -8.43706 -10.4069
ltoes 17.5788
